<svg width="32" height="32" viewBox="0 0 32 32" fill="none" xmlns="http://www.w3.org/2000/svg">
<rect opacity="0.1" width="32" height="32" rx="4" fill="#242424"/>
<g opacity="0.5" clip-path="url(#clip0_1033_10952)">
<path d="M15.032 18.2589C14.6638 20.1867 14.2151 22.0347 12.8844 23C12.4742 20.0866 13.4871 17.8991 13.9582 15.5765C13.1553 14.2255 14.0548 11.5081 15.7467 12.178C17.8292 13.0012 13.9435 17.1984 16.5517 17.7234C19.2754 18.2701 20.387 12.9984 18.6979 11.2841C16.2584 8.80749 11.5957 11.226 12.1697 14.7715C12.309 15.6381 13.2043 15.9006 12.5274 17.0969C10.9657 16.7511 10.4995 15.5191 10.5597 13.8769C10.6563 11.1889 12.974 9.30799 15.2994 9.04689C18.2401 8.71719 21.0002 10.127 21.3817 12.8927C21.8108 16.0154 20.0545 19.3978 16.9094 19.1542C16.0568 19.0877 15.6998 18.6649 15.032 18.2589Z" fill="#242424"/>
</g>
<defs>
<clipPath id="clip0_1033_10952">
<rect width="14" height="14" fill="white" transform="translate(9 9)"/>
</clipPath>
</defs>
</svg>
