<svg width="32" height="32" viewBox="0 0 32 32" fill="none" xmlns="http://www.w3.org/2000/svg">
<rect opacity="0.1" width="32" height="32" rx="4" fill="#242424"/>
<g opacity="0.5" clip-path="url(#clip0_1033_10951)">
<path fill-rule="evenodd" clip-rule="evenodd" d="M20.5362 11.5841C20.6804 11.5235 20.8382 11.5025 20.9931 11.5235C21.1481 11.5445 21.2946 11.6067 21.4175 11.7035C21.5403 11.8004 21.6349 11.9284 21.6914 12.0742C21.748 12.22 21.7644 12.3783 21.7391 12.5326L20.4161 20.5576C20.2877 21.3316 19.4384 21.7756 18.7285 21.39C18.1346 21.0674 17.2526 20.5704 16.4593 20.0518C16.0626 19.7922 14.8476 18.961 14.9969 18.3695C15.1252 17.8637 17.1669 15.9632 18.3336 14.8333C18.7915 14.3894 18.5826 14.1333 18.0419 14.5416C16.6985 15.5555 14.5431 17.0972 13.8302 17.5312C13.2014 17.9139 12.8736 17.9792 12.4816 17.9139C11.7664 17.7949 11.1031 17.6106 10.5618 17.386C9.8303 17.0826 9.86589 16.077 10.5612 15.7841L20.5362 11.5841Z" fill="#242424"/>
</g>
<defs>
<clipPath id="clip0_1033_10951">
<rect width="14" height="14" fill="white" transform="translate(9 9)"/>
</clipPath>
</defs>
</svg>
