<svg width="32" height="32" viewBox="0 0 32 32" fill="none" xmlns="http://www.w3.org/2000/svg">
<rect opacity="0.1" width="32" height="32" rx="4" fill="#242424"/>
<g opacity="0.5">
<path fill-rule="evenodd" clip-rule="evenodd" d="M22.2535 12.6094C22.3509 12.3009 22.2535 12.0767 21.8229 12.0767H20.3909C20.0296 12.0767 19.8629 12.273 19.7655 12.483C19.7655 12.483 19.0289 14.2768 18.0002 15.4397C17.6666 15.7761 17.5138 15.8882 17.333 15.8882C17.2357 15.8882 17.1104 15.7761 17.1104 15.4679V12.5949C17.1104 12.2307 16.9994 12.0625 16.6934 12.0625H14.4414C14.2188 12.0625 14.0799 12.2307 14.0799 12.3988C14.0799 12.7491 14.5943 12.8333 14.6498 13.8141V15.9453C14.6498 16.4077 14.5677 16.4922 14.3856 16.4922C13.8992 16.4922 12.7177 14.6845 12.0089 12.6247C11.8711 12.2167 11.7311 12.0625 11.3696 12.0625H9.92395C9.50695 12.0625 9.4375 12.2586 9.4375 12.4688C9.4375 12.8473 9.92395 14.7529 11.7032 17.275C12.8847 18.9977 14.5666 19.9236 16.0818 19.9236C16.9994 19.9236 17.1104 19.7133 17.1104 19.363V18.0598C17.1104 17.6395 17.1938 17.5695 17.4859 17.5695C17.6942 17.5695 18.0696 17.6814 18.9176 18.5082C19.8905 19.4891 20.0573 19.9375 20.5995 19.9375H22.0312C22.4482 19.9375 22.6429 19.7272 22.5316 19.3209C22.4066 18.9146 21.9339 18.3261 21.3222 17.6256C20.9886 17.2335 20.4882 16.799 20.3354 16.5887C20.127 16.3084 20.1825 16.1963 20.3354 15.9442C20.3214 15.9442 22.073 13.4499 22.2535 12.6083" fill="#242424"/>
</g>
</svg>
