<svg width="16" height="16" viewBox="0 0 16 16" fill="none" xmlns="http://www.w3.org/2000/svg">
<path d="M13.3346 6.81478C13.3346 10.9629 8.0013 14.5185 8.0013 14.5185C8.0013 14.5185 2.66797 10.9629 2.66797 6.81478C2.66797 5.40029 3.22987 4.04374 4.23007 3.04354C5.23026 2.04335 6.58681 1.48145 8.0013 1.48145C9.41579 1.48145 10.7723 2.04335 11.7725 3.04354C12.7727 4.04374 13.3346 5.40029 13.3346 6.81478Z" stroke="#3B3B3B" stroke-linecap="round" stroke-linejoin="round"/>
<path d="M8.00239 8.59267C8.98423 8.59267 9.78017 7.79673 9.78017 6.81489C9.78017 5.83305 8.98423 5.03711 8.00239 5.03711C7.02055 5.03711 6.22461 5.83305 6.22461 6.81489C6.22461 7.79673 7.02055 8.59267 8.00239 8.59267Z" stroke="#3B3B3B" stroke-linecap="round" stroke-linejoin="round"/>
</svg>
