<svg width="165" height="48" viewBox="0 0 165 48" fill="none" xmlns="http://www.w3.org/2000/svg">
<g clip-path="url(#clip0_5177_987)">
<path fill-rule="evenodd" clip-rule="evenodd" d="M95.002 17.472H86.9461L85.0232 21.6843H82.4785L90.0555 5.27515H91.9319L99.5125 21.6843H96.8998L94.9913 17.472H95.002ZM156.944 19.3115V7.75887H151.254V5.38251H165.004V7.75887H159.314V19.3115H165.004V21.6843H151.254V19.3115H156.944ZM118.669 17.2966V5.38251H120.996V21.6843H119.231L109.581 9.49464V21.6843H107.254V5.38251H109.237L118.673 17.2966H118.669ZM141.25 17.2966V5.38251H143.581V21.6843H141.811L132.162 9.49464V21.6843H129.831V5.38251H131.815L141.25 17.2966ZM86.8103 33.1475H95.17V26.183H97.5432V42.4848H95.17V35.438H86.8103V42.4848H84.4407V26.183H86.8103V33.1475ZM136.69 42.721C132.401 42.721 129.899 39.8185 129.899 35.6026V26.183H132.272V35.4881C132.272 38.412 133.666 40.4484 136.729 40.4484C139.792 40.4484 141.104 38.5051 141.104 35.5954V26.183H143.477V35.4881C143.477 39.7541 141.057 42.7353 136.686 42.7353L136.69 42.721ZM158.649 42.721C156.079 42.721 154.085 41.8585 152.18 40.1514L151.715 39.7398L153.277 37.9504L153.752 38.3906C155.264 39.7863 156.637 40.4592 158.713 40.4592C160.189 40.4592 161.887 39.7434 161.887 38.0577C161.896 37.7645 161.846 37.4724 161.74 37.1988C161.272 36.1251 159.146 35.6742 158.141 35.4702C155.368 34.9083 152.569 33.8919 152.569 30.5778C152.562 29.9826 152.684 29.3928 152.927 28.8493C153.817 26.8988 155.965 25.9862 158.009 25.9862C160.038 25.9248 162.017 26.6256 163.556 27.951L164.046 28.3446L162.534 30.2235L162.044 29.7976C160.934 28.7767 159.473 28.2241 157.966 28.2551C156.858 28.2551 155.525 28.6596 155.068 29.7762C154.974 30.0033 154.926 30.2463 154.925 30.492C154.916 30.7796 154.962 31.0662 155.06 31.3366C155.525 32.4854 157.759 32.9507 158.803 33.1654C161.508 33.7165 164.239 34.7795 164.239 37.9718C164.245 38.7808 164.029 39.5758 163.613 40.2695C162.573 41.9873 160.557 42.7067 158.631 42.7067L158.649 42.721ZM118.119 38.2796H110.063L108.155 42.492H105.606L113.187 26.0828H115.063L122.64 42.492H120.049L118.119 38.2796ZM87.9897 15.2137H93.9584L90.9812 8.65359L87.9897 15.2137ZM111.114 36.007H117.086L114.109 29.4469L111.114 36.007Z" fill="#3B3B3B"/>
<path fill-rule="evenodd" clip-rule="evenodd" d="M0 48H11.2583L18.2491 31.5622H50.9947L57.8926 48H69.5369L48.5929 0H37.5777L47.0096 21.8598H22.2378L31.5911 0H20.9404L0 48Z" fill="#3B3B3B"/>
</g>
<defs>
<clipPath id="clip0_5177_987">
<rect width="165" height="48" fill="white"/>
</clipPath>
</defs>
</svg>
