<svg width="24" height="24" viewBox="0 0 24 24" fill="none" xmlns="http://www.w3.org/2000/svg">
<g clip-path="url(#clip0_5177_1010)">
<path d="M8.22135 22.0051C9.14183 22.0051 9.88802 21.2589 9.88802 20.3384C9.88802 19.4179 9.14183 18.6718 8.22135 18.6718C7.30088 18.6718 6.55469 19.4179 6.55469 20.3384C6.55469 21.2589 7.30088 22.0051 8.22135 22.0051Z" fill="#3B3B3B"/>
<path d="M18.2214 22.0051C19.1418 22.0051 19.888 21.2589 19.888 20.3384C19.888 19.4179 19.1418 18.6718 18.2214 18.6718C17.3009 18.6718 16.5547 19.4179 16.5547 20.3384C16.5547 21.2589 17.3009 22.0051 18.2214 22.0051Z" fill="#3B3B3B"/>
<path d="M1 1.90405H4.63636L7.07273 14.0768C7.15586 14.4953 7.38355 14.8713 7.71595 15.1389C8.04835 15.4064 8.46427 15.5486 8.89091 15.5404H17.7273C18.1539 15.5486 18.5698 15.4064 18.9022 15.1389C19.2346 14.8713 19.4623 14.4953 19.5455 14.0768L21 6.44951H5.54545" stroke="#3B3B3B" stroke-width="2" stroke-linecap="round" stroke-linejoin="round"/>
<circle cx="16" cy="16" r="7.5" fill="#3B3B3B" stroke="white"/>
<path d="M12.7129 18.1475H12.7788C13.1099 18.1475 13.3838 18.0947 13.6006 17.9893C13.8203 17.8838 13.9932 17.7373 14.1191 17.5498C14.2451 17.3623 14.333 17.1411 14.3828 16.8862C14.4355 16.6313 14.4619 16.3545 14.4619 16.0557V14.9395C14.4619 14.6816 14.4399 14.4561 14.396 14.2627C14.355 14.0664 14.2979 13.9038 14.2246 13.7749C14.1543 13.6431 14.0723 13.5435 13.9785 13.4761C13.8877 13.4087 13.7925 13.375 13.6929 13.375C13.5698 13.375 13.4614 13.4116 13.3677 13.4849C13.2739 13.5552 13.1948 13.6533 13.1304 13.7793C13.0688 13.9023 13.0205 14.0459 12.9854 14.21C12.9531 14.3711 12.937 14.5425 12.937 14.7241C12.937 14.8999 12.9517 15.0684 12.981 15.2295C13.0132 15.3877 13.0601 15.5298 13.1216 15.6558C13.186 15.7817 13.2666 15.8813 13.3633 15.9546C13.46 16.0249 13.5742 16.0601 13.7061 16.0601C13.8174 16.0601 13.9214 16.0293 14.0181 15.9678C14.1177 15.9033 14.2056 15.8184 14.2817 15.7129C14.3608 15.6074 14.4238 15.4888 14.4707 15.3569C14.5205 15.2251 14.5483 15.0889 14.5542 14.9482L14.9409 15.0845C14.9409 15.3042 14.9028 15.521 14.8267 15.7349C14.7534 15.9487 14.6494 16.1436 14.5146 16.3193C14.3828 16.4951 14.2275 16.6357 14.0488 16.7412C13.873 16.8467 13.6826 16.8994 13.4775 16.8994C13.2139 16.8994 12.9839 16.8423 12.7876 16.728C12.5942 16.6108 12.4331 16.4526 12.3042 16.2534C12.1782 16.0542 12.083 15.8257 12.0186 15.5679C11.957 15.3101 11.9263 15.0391 11.9263 14.7549C11.9263 14.4443 11.9658 14.1543 12.0449 13.8848C12.124 13.6152 12.2383 13.3779 12.3877 13.1729C12.54 12.9648 12.7261 12.8037 12.9458 12.6895C13.1655 12.5723 13.416 12.5137 13.6973 12.5137C13.9932 12.5137 14.251 12.5811 14.4707 12.7158C14.6934 12.8477 14.8794 13.0322 15.0288 13.2695C15.1812 13.5068 15.2939 13.7837 15.3672 14.1001C15.4434 14.4136 15.4814 14.7505 15.4814 15.1108V15.4888C15.4814 15.8667 15.4536 16.2314 15.3979 16.583C15.3452 16.9346 15.2559 17.2598 15.1299 17.5586C15.0068 17.8545 14.8413 18.1138 14.6333 18.3364C14.4282 18.5591 14.1733 18.7319 13.8687 18.855C13.564 18.978 13.2036 19.0396 12.7876 19.0396H12.7173L12.7129 18.1475ZM17.2129 18.1475H17.2788C17.6099 18.1475 17.8838 18.0947 18.1006 17.9893C18.3203 17.8838 18.4932 17.7373 18.6191 17.5498C18.7451 17.3623 18.833 17.1411 18.8828 16.8862C18.9355 16.6313 18.9619 16.3545 18.9619 16.0557V14.9395C18.9619 14.6816 18.9399 14.4561 18.896 14.2627C18.855 14.0664 18.7979 13.9038 18.7246 13.7749C18.6543 13.6431 18.5723 13.5435 18.4785 13.4761C18.3877 13.4087 18.2925 13.375 18.1929 13.375C18.0698 13.375 17.9614 13.4116 17.8677 13.4849C17.7739 13.5552 17.6948 13.6533 17.6304 13.7793C17.5688 13.9023 17.5205 14.0459 17.4854 14.21C17.4531 14.3711 17.437 14.5425 17.437 14.7241C17.437 14.8999 17.4517 15.0684 17.481 15.2295C17.5132 15.3877 17.5601 15.5298 17.6216 15.6558C17.686 15.7817 17.7666 15.8813 17.8633 15.9546C17.96 16.0249 18.0742 16.0601 18.2061 16.0601C18.3174 16.0601 18.4214 16.0293 18.5181 15.9678C18.6177 15.9033 18.7056 15.8184 18.7817 15.7129C18.8608 15.6074 18.9238 15.4888 18.9707 15.3569C19.0205 15.2251 19.0483 15.0889 19.0542 14.9482L19.4409 15.0845C19.4409 15.3042 19.4028 15.521 19.3267 15.7349C19.2534 15.9487 19.1494 16.1436 19.0146 16.3193C18.8828 16.4951 18.7275 16.6357 18.5488 16.7412C18.373 16.8467 18.1826 16.8994 17.9775 16.8994C17.7139 16.8994 17.4839 16.8423 17.2876 16.728C17.0942 16.6108 16.9331 16.4526 16.8042 16.2534C16.6782 16.0542 16.583 15.8257 16.5186 15.5679C16.457 15.3101 16.4263 15.0391 16.4263 14.7549C16.4263 14.4443 16.4658 14.1543 16.5449 13.8848C16.624 13.6152 16.7383 13.3779 16.8877 13.1729C17.04 12.9648 17.2261 12.8037 17.4458 12.6895C17.6655 12.5723 17.916 12.5137 18.1973 12.5137C18.4932 12.5137 18.751 12.5811 18.9707 12.7158C19.1934 12.8477 19.3794 13.0322 19.5288 13.2695C19.6812 13.5068 19.7939 13.7837 19.8672 14.1001C19.9434 14.4136 19.9814 14.7505 19.9814 15.1108V15.4888C19.9814 15.8667 19.9536 16.2314 19.8979 16.583C19.8452 16.9346 19.7559 17.2598 19.6299 17.5586C19.5068 17.8545 19.3413 18.1138 19.1333 18.3364C18.9282 18.5591 18.6733 18.7319 18.3687 18.855C18.064 18.978 17.7036 19.0396 17.2876 19.0396H17.2173L17.2129 18.1475Z" fill="white"/>
</g>
<defs>
<clipPath id="clip0_5177_1010">
<rect width="24" height="24" fill="white"/>
</clipPath>
</defs>
</svg>
